<svg xmlns="http://www.w3.org/2000/svg" viewBox="0 0 24 24"><g fill="none" fill-rule="evenodd"><path d="M0 0h24v24H0z"/><path fill="#02B3E4" fill-rule="nonzero" d="M9.0026 13.414214l-.147753.147754-1.05719 2.642977 2.642976-1.05719L10.588387 15 9.0026 13.414214zM10.416815 12l1.585787 1.585786L16.588388 9 15.0026 7.414214 10.416815 12zm-3.12132.292893l7-7c.390524-.390524 1.02369-.390524 1.414213 0l3 3c.390525.390525.390525 1.02369 0 1.414214l-7 7c-.09576.09576-.209975.171073-.335716.22137l-5 2c-.81631.326524-1.62639-.483556-1.299866-1.299868l2-5c.050296-.12574.12561-.239956.22137-.335717z"/></g></svg>